<svg width="73" height="103" viewBox="0 0 73 103" fill="none" xmlns="http://www.w3.org/2000/svg">
<path d="M61.8286 77.2131V101.84H11.1875V77.2131L11.8061 77.6979L23.7266 63.0857L34.2928 50.112L33.1559 49.1757L30.3806 46.9187L28.1403 45.0796L29.6283 46.1496L30.3806 45.4809L31.902 43.9929L36.5164 39.4287L41.1308 43.9929L42.6188 45.4809L43.3878 46.3001L42.6188 46.9187L39.8602 49.1757L38.7233 50.112L49.3063 63.0857L61.21 77.6979L61.8286 77.2131Z" stroke="black" stroke-width="2" stroke-linecap="round" stroke-linejoin="round"/>
<path d="M25.3826 45.0798L11.2051 62.4339V45.0464H11.7401L25.3826 45.0798Z" stroke="black" stroke-width="2" stroke-linecap="round" stroke-linejoin="round"/>
<path d="M25.7652 34.2628H11.7381H11.2031V32.7916C11.1968 28.5446 12.4348 24.3888 14.7642 20.8376L25.7652 34.2628Z" stroke="black" stroke-width="2" stroke-linecap="round" stroke-linejoin="round"/>
<path d="M38.7054 28.7288L42.6343 31.9221L40.7116 34.2627L36.4985 39.4288L32.3021 34.2627L30.3962 31.9221L34.3084 28.7288L22.2207 13.9495C25.4593 12.1202 29.1176 11.1639 32.8371 11.1742H40.1766C43.8958 11.1662 47.5536 12.1224 50.793 13.9495L38.7054 28.7288Z" stroke="black" stroke-width="2" stroke-linecap="round" stroke-linejoin="round"/>
<path d="M61.812 32.8251V34.2964H61.277H47.25L58.2008 20.9214C60.5484 24.4481 61.8045 28.5885 61.812 32.8251V32.8251Z" stroke="black" stroke-width="2" stroke-linecap="round" stroke-linejoin="round"/>
<path d="M61.8112 45.0464V62.4506L47.6504 45.0798H61.2762L61.8112 45.0464Z" stroke="black" stroke-width="2" stroke-linecap="round" stroke-linejoin="round"/>
<path d="M36.5 39.4289L31.9024 43.9931L30.3977 45.481L29.6119 46.1498L28.1406 45.0798L26.4688 43.7256L25.382 45.0798H11.7395H11.2045C9.86856 44.9506 8.62858 44.3285 7.72632 43.3348C6.82407 42.341 6.32422 41.0469 6.32422 39.7047C6.32422 38.3625 6.82407 37.0684 7.72632 36.0747C8.62858 35.0809 9.86856 34.4588 11.2045 34.3296H11.7395H25.7666L26.4688 35.1823L27.522 34.3296L30.3977 31.989L32.3036 34.3296L36.5 39.4289Z" stroke="black" stroke-width="2" stroke-linecap="round" stroke-linejoin="round"/>
<path d="M44.8594 45.0798L46.5312 43.7256L47.6347 45.0798H61.2772H61.8122C63.0777 44.9814 64.2652 44.4292 65.1559 43.5249C65.6759 43.0341 66.0919 42.4437 66.3791 41.7888C66.6663 41.134 66.8189 40.4281 66.8278 39.7131C66.8265 38.3728 66.3284 37.0807 65.4298 36.0864C64.5312 35.092 63.2959 34.4661 61.9627 34.3296H61.4277H47.3839L46.5312 35.1154L45.4947 34.2627L42.6191 31.9221L40.7131 34.2627L36.5 39.4288" stroke="black" stroke-width="2" stroke-linecap="round" stroke-linejoin="round"/>
<path d="M32.2871 34.2629H40.7134L36.517 39.429L32.2871 34.2629Z" stroke="black" stroke-width="2" stroke-linecap="round" stroke-linejoin="round"/>
<path d="M34.2927 28.7289L30.3805 31.9222L27.5216 34.2628L26.4683 35.1155L25.7828 34.2628L14.7986 20.8376L3.96484 7.54623L11.8059 1.15967L22.2217 13.9495L34.2927 28.7289Z" stroke="black" stroke-width="2" stroke-linecap="round" stroke-linejoin="round"/>
<path d="M69.0505 71.2948L61.828 77.2132L61.2094 77.6981L49.3056 63.0859L38.7227 50.1121L39.8595 49.1759L42.6181 46.9189L43.3872 46.3003L44.8919 45.0798L46.547 43.7256L47.6337 45.0798L61.828 62.4506L69.0505 71.2948Z" stroke="black" stroke-width="2" stroke-linecap="round" stroke-linejoin="round"/>
<path d="M69.0505 7.54623L58.2 20.8376L47.2325 34.2628L46.547 35.1155L45.4937 34.2628L42.6181 31.9222L38.7227 28.7289L50.7936 13.9495L61.2094 1.15967L69.0505 7.54623Z" stroke="black" stroke-width="2" stroke-linecap="round" stroke-linejoin="round"/>
<path d="M34.2927 50.1121L23.7264 63.0859L11.8059 77.6981L11.1873 77.2132L3.96484 71.2948L11.1873 62.4339L25.3648 45.0798L26.4683 43.7256L28.1402 45.0798L30.3805 46.9189L33.1558 49.1759L34.2927 50.1121Z" stroke="black" stroke-width="2" stroke-linecap="round" stroke-linejoin="round"/>
<path d="M11.5 2.5L5.5 7.5L26.5 34L33 28.5L11.5 2.5Z" fill="#41D400" stroke="#41D400"/>
<path d="M67.9298 7.47345L61.8071 2.62441L40.1687 28.6057L46.8831 33.8418L67.9298 7.47345Z" fill="#008ADD" stroke="#008ADD"/>
<path d="M46 45L40 50L61 76.5L67.5 71L46 45Z" fill="#41D400" stroke="#41D400"/>
<path d="M32.3966 49.9449L26.2739 45.0958L4.63545 71.0771L11.3499 76.3132L32.3966 49.9449Z" fill="#008ADD" stroke="#008ADD"/>
</svg>
